<svg version="1.2" baseProfile="tiny-ps" xmlns="http://www.w3.org/2000/svg" viewBox="0 0 24 24" width="24" height="24">
	<title>search-24-svg</title>
	<style>
		tspan { white-space:pre }
		.shp0 { fill: #000000 } 
	</style>
	<path id="Layer" fill-rule="evenodd" class="shp0" d="M3.16 14.81C0.18 11.56 0.3 6.54 3.42 3.42C6.54 0.3 11.56 0.18 14.81 3.16C18.07 6.13 18.41 11.14 15.59 14.53L21.28 20.22C21.43 20.36 21.52 20.55 21.52 20.76C21.52 20.96 21.44 21.16 21.3 21.3C21.16 21.44 20.96 21.52 20.76 21.52C20.55 21.52 20.36 21.43 20.22 21.28L14.53 15.59C11.14 18.41 6.13 18.07 3.16 14.81ZM2.5 9.25C2.5 10.56 2.88 11.84 3.59 12.94C4.31 14.03 5.33 14.9 6.52 15.42C7.72 15.95 9.04 16.12 10.34 15.91C11.63 15.7 12.83 15.12 13.8 14.24C13.82 14.19 13.84 14.14 13.87 14.09C13.9 14.05 13.93 14.01 13.97 13.97C14.01 13.93 14.05 13.9 14.1 13.87C14.14 13.84 14.19 13.82 14.24 13.8C15.74 12.15 16.33 9.87 15.82 7.7C15.31 5.54 13.76 3.76 11.69 2.96C9.61 2.15 7.27 2.42 5.44 3.68C3.6 4.94 2.5 7.02 2.5 9.25Z" />
</svg>